<svg width="297" height="60" viewBox="0 0 307 70" fill="none" xmlns="http://www.w3.org/2000/svg">
<path d="M286.054 29.5271H279.402" stroke="#010202" stroke-width="2.5" stroke-linecap="round"/>
<path d="M36.3222 41.4676C34.5268 41.4676 32.8289 41.0957 31.2423 40.3658C29.6418 39.6359 28.2362 38.6305 27.0393 37.3635C25.8285 36.0552 24.8821 34.5265 24.1723 32.7912C23.4765 31.0146 23.1146 29.1278 23.1146 27.1171C23.1146 25.189 23.4626 23.3711 24.1723 21.6772C24.8682 19.9419 25.8285 18.4407 27.0393 17.1599C28.2919 15.8516 29.7114 14.8325 31.3119 14.0888C32.9124 13.3589 34.5825 12.987 36.3361 12.987C38.201 12.987 39.885 13.3589 41.3602 14.0888C42.8355 14.8187 44.088 15.8378 45.104 17.1599C46.1617 18.427 46.955 19.9419 47.4978 21.6772C48.0405 23.3711 48.3328 25.2028 48.3745 27.1722C48.3745 29.1416 48.0962 30.9871 47.5534 32.7223C47.0524 34.4163 46.273 35.9175 45.2153 37.2396C44.1994 38.5479 42.9329 39.5946 41.4159 40.3658C39.9267 41.1095 38.2288 41.4676 36.3222 41.4676ZM37.2546 34.7055C38.6185 34.7055 39.8293 34.4025 40.8731 33.7828C41.9587 33.1217 42.8215 32.2403 43.4478 31.1248C44.1158 30.0093 44.4359 28.7285 44.4359 27.3099C44.4359 25.8501 44.1019 24.5555 43.4478 23.44C42.8215 22.3245 41.9726 21.4293 40.8731 20.782C39.8154 20.1209 38.6185 19.8042 37.2546 19.8042C35.8907 19.8042 34.666 20.1347 33.5665 20.782C32.481 21.4017 31.6042 22.2831 30.9362 23.44C30.3099 24.5555 30.0037 25.8501 30.0037 27.3099C30.0037 28.7422 30.3099 30.0093 30.9362 31.1248C31.6042 32.2403 32.481 33.1355 33.5665 33.7828C34.7077 34.4025 35.9325 34.7055 37.2546 34.7055ZM48.0684 41.4676C46.9828 41.4676 46.1756 41.2885 45.6746 40.9442C45.1736 40.5586 44.8395 39.9664 44.6865 39.1539V3.52564C44.6865 2.86458 44.7282 2.28616 44.7978 1.79036C44.9091 1.25325 45.2014 0.826322 45.6746 0.523337C46.1756 0.179036 46.955 0 48.0127 0C49.14 0 49.9472 0.151492 50.4065 0.468249C50.8657 0.785006 51.1719 1.19817 51.2833 1.73528C51.4364 2.23107 51.5199 2.80949 51.5199 3.47055V37.9419C51.5199 38.603 51.4642 39.1952 51.3389 39.7323C51.2137 40.2694 50.9075 40.6963 50.4065 40.9993C49.9472 41.3161 49.1678 41.4676 48.0684 41.4676ZM80.9411 41.4125C79.8138 41.4125 78.9787 41.2059 78.422 40.779C77.8792 40.352 77.6009 39.7736 77.6009 39.0437L78.0045 37.1294C77.6983 37.6252 77.1695 38.2312 76.4318 38.9198C75.6942 39.5808 74.72 40.173 73.5092 40.7101C72.2984 41.2059 70.8371 41.4676 69.1253 41.4676C67.2882 41.4676 65.5624 41.0957 63.9202 40.3658C62.3197 39.5946 60.9001 38.5479 59.6476 37.2396C58.4368 35.8899 57.4626 34.3612 56.7249 32.6673C56.0291 30.932 55.6672 29.0865 55.6672 27.1171C55.6672 25.2304 56.0152 23.4538 56.7249 21.8011C57.4626 20.1072 58.4646 18.606 59.7032 17.2839C60.9558 15.9756 62.3754 14.9564 63.9759 14.2127C65.6181 13.4415 67.3299 13.0559 69.1253 13.0559C70.7257 13.0559 72.0618 13.2625 73.1613 13.6894C74.2886 14.1163 75.2489 14.6534 76.0282 15.3145C76.8076 15.9342 77.4478 16.5815 77.9627 17.2839L77.6148 15.6037C77.6148 14.7498 77.8932 14.1163 78.4359 13.6894C78.9787 13.2211 79.8416 13.0008 81.0106 13.0008C82.0962 13.0008 82.8756 13.1798 83.3487 13.5241C83.8219 13.8271 84.1142 14.2816 84.2255 14.86C84.3369 15.3971 84.4065 16.0169 84.4065 16.7055V37.8731C84.4065 38.5341 84.3508 39.1263 84.2255 39.6634C84.1142 40.2006 83.7941 40.6275 83.2931 40.9305C82.8199 41.261 82.0405 41.4125 80.9411 41.4125ZM70.1969 34.7055C71.519 34.7055 72.7159 34.375 73.7597 33.7277C74.8035 33.0804 75.6525 32.1852 76.2788 31.0697C76.9468 29.9128 77.2669 28.6458 77.2669 27.2548C77.2669 25.7537 76.9329 24.4454 76.2788 23.316C75.6107 22.2005 74.7339 21.3329 73.6484 20.7131C72.5907 20.0521 71.4077 19.7353 70.0855 19.7353C68.6381 19.7353 67.3578 20.0796 66.2305 20.782C65.1032 21.443 64.1985 22.3382 63.5444 23.4951C62.9181 24.6106 62.612 25.8914 62.612 27.3099C62.612 28.7009 62.946 29.9542 63.6001 31.0697C64.2681 32.1852 65.1588 33.0804 66.2861 33.7277C67.4413 34.375 68.7495 34.7055 70.1969 34.7055ZM94.2043 51.0805C94.0094 50.4194 94.1903 49.538 94.7331 48.4225L109.819 14.984C110.362 13.7445 110.947 13.0146 111.573 12.7804C112.199 12.505 113.146 12.6427 114.44 13.1798C115.651 13.7169 116.347 14.3229 116.542 14.9702C116.778 15.6313 116.639 16.5127 116.138 17.6282L100.926 51.2457M101.803 38.7545L88.3033 18.2204C87.6074 17.1737 87.3152 16.3061 87.4265 15.6175C87.5796 14.9289 88.2059 14.254 89.2914 13.593C90.5022 12.8631 91.4347 12.5739 92.1027 12.7254C92.7986 12.8768 93.5084 13.4966 94.2043 14.5708L104.907 31.0559L101.803 38.7545ZM124.892 41.4676C123.876 41.4676 123.124 41.2885 122.609 40.9442C122.108 40.5999 121.774 40.1317 121.621 39.5533C121.51 38.9748 121.44 38.3413 121.44 37.639V4.80644C121.44 4.11784 121.524 3.4981 121.677 2.96099C121.83 2.38256 122.15 1.91431 122.609 1.57001C123.111 1.22571 123.89 1.04667 124.948 1.04667H140.382C142.636 1.04667 144.627 1.57001 146.339 2.60291C148.092 3.64959 149.456 5.02679 150.43 6.76207C151.404 8.45603 151.892 10.329 151.892 12.3673C151.892 13.29 151.78 14.2127 151.544 15.1492C151.349 16.0306 151.015 16.8707 150.555 17.642C150.124 18.4132 149.581 19.1018 148.913 19.7215C149.804 20.4101 150.583 21.264 151.251 22.2694C151.919 23.2747 152.406 24.3765 152.713 25.5609C153.061 26.7177 153.241 27.9297 153.241 29.2105C153.2 30.9457 152.866 32.5708 152.253 34.072C151.627 35.5318 150.75 36.8264 149.623 37.9419C148.537 39.0575 147.243 39.9251 145.768 40.5449C144.293 41.1646 142.692 41.4676 140.98 41.4676H124.892ZM127.634 34.6504H139.505C140.632 34.6504 141.634 34.4438 142.483 34.0169C143.374 33.59 144.084 32.9427 144.585 32.0475C145.086 31.1661 145.35 30.0093 145.35 28.577C145.35 27.4614 145.197 26.5662 144.877 25.919C144.599 25.2304 144.209 24.6795 143.708 24.2939C143.235 23.9082 142.692 23.6328 142.066 23.4813C141.481 23.3298 140.897 23.2472 140.312 23.2472C139.728 23.2059 139.185 23.1921 138.67 23.1921H135.998C134.982 23.1921 134.244 22.958 133.771 22.5035C133.298 22.0077 133.075 21.1952 133.075 20.0796C133.075 19.0329 133.326 18.303 133.841 17.8761C134.342 17.4078 135.121 17.1875 136.179 17.1875H138.809C139.31 17.1875 139.867 17.1737 140.451 17.1324C141.078 17.0911 141.662 16.9534 142.205 16.733C142.748 16.4576 143.193 16.0444 143.555 15.466C143.903 14.8876 144.084 14.0337 144.084 12.9182C144.084 11.1829 143.611 9.92963 142.678 9.1584C141.788 8.34585 140.229 7.94646 138.002 7.94646H127.661V34.6504H127.634ZM170.012 41.4676C168.217 41.4676 166.519 41.0957 164.932 40.3658C163.332 39.6359 161.926 38.6305 160.729 37.3635C159.518 36.0552 158.572 34.5265 157.862 32.7912C157.166 31.0146 156.804 29.1278 156.804 27.1171C156.804 25.189 157.152 23.3711 157.862 21.6772C158.558 19.9419 159.518 18.4407 160.729 17.1599C161.982 15.8516 163.401 14.8325 165.002 14.0888C166.602 13.3589 168.272 12.987 170.026 12.987C171.891 12.987 173.575 13.3589 175.05 14.0888C176.525 14.8187 177.778 15.8378 178.794 17.1599C179.851 18.427 180.645 19.9419 181.187 21.6772C181.73 23.3711 182.022 25.2028 182.064 27.1722C182.064 29.1416 181.786 30.9871 181.243 32.7223C180.742 34.4163 179.963 35.9175 178.905 37.2396C177.889 38.5479 176.623 39.5946 175.106 40.3658C173.616 41.1095 171.919 41.4676 170.012 41.4676ZM170.944 34.7055C172.308 34.7055 173.519 34.4025 174.563 33.7828C175.648 33.1217 176.511 32.2403 177.138 31.1248C177.806 30.0093 178.126 28.7285 178.126 27.3099C178.126 25.8501 177.792 24.5555 177.138 23.44C176.511 22.3245 175.662 21.4293 174.563 20.782C173.505 20.1209 172.308 19.8042 170.944 19.8042C169.58 19.8042 168.356 20.1347 167.256 20.782C166.171 21.4017 165.294 22.2831 164.626 23.44C164 24.5555 163.693 25.8501 163.693 27.3099C163.693 28.7422 164 30.0093 164.626 31.1248C165.294 32.2403 166.171 33.1355 167.256 33.7828C168.397 34.4025 169.622 34.7055 170.944 34.7055ZM181.758 41.4676C180.673 41.4676 179.865 41.2885 179.364 40.9442C178.863 40.5586 178.529 39.9664 178.376 39.1539V3.52564C178.376 2.86458 178.418 2.28616 178.487 1.79036C178.599 1.25325 178.891 0.826322 179.364 0.523337C179.865 0.179036 180.645 0 181.702 0C182.83 0 183.637 0.151492 184.096 0.468249C184.555 0.785006 184.862 1.19817 184.973 1.73528C185.126 2.23107 185.21 2.80949 185.21 3.47055V37.9419C185.21 38.603 185.154 39.1952 185.029 39.7323C184.903 40.2694 184.597 40.6963 184.096 40.9993C183.637 41.3161 182.858 41.4676 181.758 41.4676ZM214.631 41.4125C213.503 41.4125 212.668 41.2059 212.112 40.779C211.569 40.352 211.291 39.7736 211.291 39.0437L211.694 37.1294C211.388 37.6252 210.859 38.2312 210.122 38.9198C209.384 39.5808 208.41 40.173 207.199 40.7101C205.988 41.2059 204.527 41.4676 202.815 41.4676C200.978 41.4676 199.252 41.0957 197.61 40.3658C196.009 39.5946 194.59 38.5479 193.337 37.2396C192.126 35.8899 191.152 34.3612 190.415 32.6673C189.719 30.932 189.357 29.0865 189.357 27.1171C189.357 25.2304 189.705 23.4538 190.415 21.8011C191.152 20.1072 192.154 18.606 193.393 17.2839C194.645 15.9756 196.065 14.9564 197.666 14.2127C199.308 13.4415 201.02 13.0559 202.815 13.0559C204.415 13.0559 205.752 13.2625 206.851 13.6894C207.978 14.1163 208.939 14.6534 209.718 15.3145C210.497 15.9342 211.137 16.5815 211.652 17.2839L211.305 15.6037C211.305 14.7498 211.583 14.1163 212.126 13.6894C212.668 13.2211 213.531 13.0008 214.7 13.0008C215.786 13.0008 216.565 13.1798 217.038 13.5241C217.512 13.8271 217.804 14.2816 217.915 14.86C218.027 15.3971 218.096 16.0169 218.096 16.7055V37.8731C218.096 38.5341 218.04 39.1263 217.915 39.6634C217.79 40.2006 217.484 40.6275 216.983 40.9305C216.51 41.261 215.73 41.4125 214.631 41.4125ZM203.887 34.7055C205.209 34.7055 206.406 34.375 207.449 33.7277C208.493 33.0804 209.342 32.1852 209.968 31.0697C210.636 29.9128 210.957 28.6458 210.957 27.2548C210.957 25.7537 210.623 24.4454 209.968 23.316C209.314 22.1867 208.424 21.3329 207.338 20.7131C206.28 20.0521 205.097 19.7353 203.775 19.7353C202.328 19.7353 201.047 20.0796 199.92 20.782C198.793 21.443 197.888 22.3382 197.234 23.4951C196.608 24.6106 196.302 25.8914 196.302 27.3099C196.302 28.7009 196.636 29.9542 197.29 31.0697C197.958 32.1852 198.849 33.0804 199.976 33.7277C201.131 34.375 202.439 34.7055 203.887 34.7055ZM227.894 51.0805C227.699 50.4194 227.88 49.538 228.423 48.4225L243.509 14.984C244.052 13.7445 244.636 13.0146 245.263 12.7804C245.889 12.505 246.835 12.6427 248.13 13.1798C249.341 13.7169 250.036 14.3229 250.231 14.9702C250.468 15.6313 250.329 16.5127 249.828 17.6282L234.63 51.2319M235.493 38.7545L221.993 18.2204C221.297 17.1737 221.005 16.3061 221.116 15.6175C221.269 14.9289 221.896 14.254 222.981 13.593C224.192 12.8631 225.124 12.5739 225.792 12.7254C226.488 12.8768 227.198 13.4966 227.894 14.5708L238.596 31.0559L235.493 38.7545Z" fill="#010202"/>
<path d="M278.492 2.14844C257.24 3.27774 252.495 20.1347 252.773 28.4255C253.455 29.6512 254.596 28.935 255.083 28.4255C254.694 10.1362 270.531 4.69626 278.492 4.26933C297.42 5.1232 303.001 19.7078 303.362 26.8968C302.778 44.9932 288.604 50.4819 281.604 51.0741L11 51.287L10.9222 53.6421H281.196C300.221 51.6589 305.38 34.981 305.422 26.8968C304.17 7.189 286.954 2.18975 278.492 2.14844Z" fill="#010202" stroke="#010202" stroke-width="2.7"/>
<path d="M18.3823 64.404L10.5367 55.9776L10.5228 53H1C1.06931 54.4121 2.73269 56.039 2.73269 56.039L14.9308 68.5174C16.5526 69.7606 17.6615 68.2718 18.1328 67.7346C19.5189 65.7086 18.9645 64.9258 18.3823 64.404Z" fill="#010202" stroke="#010202" stroke-linecap="square"/>
<path d="M18.3823 40.596L10.5367 49.0224L10.5228 52H1C1.06931 50.5879 2.73269 48.961 2.73269 48.961L14.9308 36.4826C16.5526 35.2394 17.6615 36.7282 18.1328 37.2654C19.5189 39.2914 18.9645 40.0742 18.3823 40.596Z" fill="#010202" stroke="#010202" stroke-linecap="square"/>
<path d="M295.379 27.8883C295.379 35.9587 288.643 42.5417 280.279 42.5417C271.914 42.5417 265.178 35.9587 265.178 27.8883C265.178 19.8179 271.914 13.2349 280.279 13.2349C288.643 13.2486 295.379 19.8317 295.379 27.8883Z" stroke="#010202" stroke-width="4"/>
<path d="M279.416 29.4446V22.5999" stroke="#010202" stroke-width="2.5" stroke-linecap="round"/>
</svg>
